<svg width="86" height="101" viewBox="0 0 86 101" fill="none" xmlns="http://www.w3.org/2000/svg">
<path d="M82.3123 70.2955V70.4313C82.2985 71.4691 82.2861 72.2015 82.2861 72.2145V72.2688L82.283 72.3233C82.1351 75.3754 81.2287 77.8052 79.4199 79.8801C78.2282 81.164 76.5659 82.5066 74.2482 83.8032C73.6109 84.154 72.9234 84.5045 72.1799 84.8632C71.6186 85.1264 71.0261 85.3867 70.4006 85.6425L70.3978 85.644C69.9062 85.8468 68.3259 86.5509 67.7972 86.7478L43 96.1528L18.2029 86.7478C17.674 86.5509 16.0939 85.8468 15.6024 85.644L15.5993 85.6425C14.9741 85.3867 14.3816 85.1264 13.8201 84.8632C13.0767 84.5045 12.3893 84.154 11.7516 83.8032C9.43424 82.5066 7.77166 81.164 6.58191 79.8801C4.77157 77.8052 3.86483 75.3754 3.7171 72.3233L3.71397 72.2688V72.2145C3.71397 72.2015 3.70154 71.4691 3.68754 70.4313V70.2955V4.69933C26.4349 9.4206 42.6624 9.26976 42.9969 9.26655V9.26498H43H43.0033V9.26655C43.3376 9.26976 59.5651 9.4206 82.3123 4.69933V70.2955ZM43.0033 4.9942H42.9969C42.6297 4.99738 24.8812 5.16378 0 0V71.7483V71.8964C0.0155527 73.0312 0.02955 73.8337 0.02955 73.8459V73.9055L0.0326607 73.9646C0.194408 77.3036 1.18667 79.9627 3.16498 82.2304C4.4683 83.6366 6.28639 85.1045 8.8215 86.5214C9.51825 86.905 10.271 87.2899 11.0828 87.681C11.6972 87.9696 12.3457 88.2549 13.0285 88.5339L13.0331 88.5354C13.5697 88.7568 15.2992 89.5281 15.8777 89.7416L43 100.031L70.1222 89.7416C70.7008 89.5281 72.4302 88.7568 72.9671 88.5354L72.9714 88.5339C73.6542 88.2549 74.3028 87.9696 74.9172 87.681C75.7291 87.2899 76.482 86.905 77.1802 86.5214C79.7137 85.1045 81.5317 83.6366 82.8351 82.2304C84.8135 79.9627 85.8058 77.3036 85.9675 73.9646L85.9705 73.9055V73.8459C85.972 73.8337 85.9845 73.0312 86 71.8964V71.7483V0C61.1189 5.16378 43.3703 4.99738 43.0033 4.9942Z" fill="#DCDCDC"/>
<path d="M49.9994 20.0015L45.7395 23.1686L47.3307 28.2501L43.0007 25.1625L38.6757 28.2501L40.2666 23.1686L36.0021 20.0015L41.3119 19.9548L43.0007 14.9048L44.6946 19.9548L49.9994 20.0015ZM64.5755 17.9908L66.2646 12.9392L67.9582 17.9908L73.2631 18.0375L69.0035 21.2034L70.5944 26.2862L66.2646 23.1969L61.9391 26.2862L63.5306 21.2034L59.2658 18.0375L64.5755 17.9908ZM24.0654 26.2862L19.7356 23.1969L15.4104 26.2862L17.0014 21.2034L12.7384 18.0375L18.0465 17.9908L19.7356 12.9392L21.4292 17.9908L26.7342 18.0375L22.4744 21.2034L24.0654 26.2862ZM43.004 13.1698H42.9976C42.6931 13.173 27.8557 13.3114 7.05859 8.99561V25.803C27.8557 30.1189 42.6931 29.9803 42.9976 29.9772H43.0007H43.004C43.3085 29.9803 58.1443 30.1189 78.9429 25.803V8.99561C58.1443 13.3114 43.3085 13.173 43.004 13.1698Z" fill="#DCDCDC"/>
<path d="M44.8626 75.5638L43.9058 78.2294V82.7435H42.0958V78.2294L41.139 75.5638V70.5073L43.0007 68.642L44.8626 70.5073V75.5638ZM45.2558 84.1057H48.561V85.8092L46.4642 87.4943L45.2558 86.1852V84.1057ZM45.2558 78.2325L47.5018 75.7558H52.5083V78.1436L51.0665 79.5995L48.8317 78.1451L48.8302 78.1436L47.0631 80.0608V82.7435H45.2558V78.2325ZM59.608 71.8042H63.1137L64.6858 73.5393V76.6986H63.4197V74.8204L62.1836 73.4769L62.1821 73.4784L60.6173 74.4964L59.608 73.4784V71.8042ZM65.6314 79.5465V77.6527H66.8975V79.5465L67.5678 80.7764L66.2646 82.3928L64.9611 80.7764L65.6314 79.5465ZM64.9611 71.6705V68.1305L66.2646 66.8244L67.5678 68.1305V71.6705L66.8975 73.5375V76.6986H65.6314V73.5375L64.9611 71.6705ZM67.8434 77.6527H70.1572V78.8434L68.6893 80.0233L67.8434 79.1083V77.6527ZM67.8434 73.5393L69.4155 71.8042H72.9207V73.4784L71.9116 74.4964L70.3471 73.4784V73.4769L69.1089 74.8204V76.6986H67.8434V73.5393ZM64.6858 79.1083L63.8399 80.0233L62.3715 78.8434V77.6527H64.6858V79.1083ZM43.0007 90.8763L41.139 88.5681L42.0958 86.8116V84.1057H43.9058V86.8116L44.8626 88.5681L43.0007 90.8763ZM40.7458 82.7435H38.9385V80.0608L37.1717 78.1436L37.1701 78.1451L34.9351 79.5995L33.4951 78.1436V75.7558H38.4998L40.7458 78.2325V82.7435ZM40.7458 86.1852L39.5371 87.4943L37.4408 85.8092V84.1057H40.7458V86.1852ZM26.3921 73.4784L25.3827 74.4964L23.8181 73.4784V73.4769L22.5801 74.8204V76.6986H21.3142V73.5393L22.8865 71.8042H26.3921V73.4784ZM23.6284 78.8434L22.1618 80.0233L21.3142 79.1083V77.6527H23.6284V78.8434ZM21.0389 71.6705L20.3701 73.5375V76.6986H19.1026V73.5375L18.4338 71.6705H18.4323V68.1305H18.4338L19.7356 66.8244L21.0389 68.1305V71.6705ZM19.7356 82.3928L18.4323 80.7764L19.1026 79.5465V77.6527H20.3701V79.5465L21.0389 80.7764L19.7356 82.3928ZM18.157 76.6986H16.891V74.8204L15.6546 73.4769L15.653 73.4784L14.0884 74.4964L13.0806 73.4784V71.8042H16.5846L18.157 73.5393V76.6986ZM18.157 79.1083L17.3109 80.0233L15.8428 78.8434V77.6527H18.157V79.1083ZM43.004 67.2995H42.9976C42.6931 67.3028 27.8557 67.4417 7.05859 63.1255V69.0952C7.07257 70.0444 7.08348 70.7134 7.08348 70.7256V70.7755L7.08658 70.8255C7.22188 73.6157 8.05086 75.8384 9.70409 77.7337C10.7928 78.9073 12.3139 80.1354 14.4321 81.3203C15.0153 81.6415 15.6437 81.9625 16.3233 82.2898C16.8366 82.5295 17.3778 82.7682 17.9501 83.0021L17.9517 83.0036C18.4011 83.1876 19.846 83.8344 20.3312 84.0119L43.0007 92.6114L65.6706 84.0119C66.1556 83.8344 67.6003 83.1876 68.05 83.0036L68.0531 83.0021C68.6237 82.7682 69.1651 82.5295 69.6783 82.2898C70.358 81.9625 70.9861 81.6415 71.5695 81.3203C73.6876 80.1354 75.2089 78.9073 76.2976 77.7337C77.9506 75.8384 78.7795 73.6157 78.915 70.8255L78.9183 70.7755V70.7256C78.9183 70.7134 78.9289 70.0444 78.9429 69.0952V68.9707V63.1255C58.1443 67.4417 43.3085 67.3028 43.004 67.2995Z" fill="#DCDCDC"/>
<path d="M44.7686 58.1807L43.0015 59.7145L41.2349 58.1807L40.2331 57.3107H25.8719V35.9038L22.8345 38.1356V60.3409H39.7479L41.2349 61.6315L43.0015 63.1653L44.7686 61.6315L46.2553 60.3409H63.1687V38.1356L60.1311 35.9038V57.3107H45.7698L44.7686 58.1807Z" fill="#DCDCDC"/>
<path d="M41.2356 34.5811L40.7005 34.1167H28.9116V54.2847H40.7252L41.5483 55.0001L43.0022 56.2611L44.4564 55.0001L45.2792 54.2847H57.093V34.1167H45.3039L44.7693 34.5811L43.0022 36.1149L41.2356 34.5811Z" fill="#DCDCDC"/>
<path d="M66.2617 54.046C70.1437 53.4817 74.3987 52.7524 78.9385 51.8093V46.3132V38.146C74.3987 39.0888 70.1437 39.8184 66.2617 40.3824V54.046Z" fill="#DCDCDC"/>
<path d="M19.7356 40.3824C15.8536 39.8184 11.5984 39.0888 7.05859 38.146V46.3132V51.8093C11.5984 52.7524 15.8536 53.4817 19.7356 54.046V40.3824Z" fill="#DCDCDC"/>
</svg>
