<svg width="43" height="44" viewBox="0 0 43 44" fill="none" xmlns="http://www.w3.org/2000/svg">
<path d="M21.3867 27.258L24.3696 20.4399L31.1878 17.4569L24.3696 14.474L21.3867 7.65588L18.4038 14.474L11.5857 17.4569L18.4038 20.4399L21.3867 27.258ZM0.0800781 43.0249V3.60762C0.0800781 2.79086 0.399678 2.05401 1.03888 1.39705C1.67808 0.740099 2.42381 0.411621 3.27607 0.411621H39.4974C40.3141 0.411621 41.051 0.740099 41.7079 1.39705C42.3649 2.05401 42.6934 2.79086 42.6934 3.60762V31.3063C42.6934 32.123 42.3649 32.8599 41.7079 33.5168C41.051 34.1738 40.3141 34.5022 39.4974 34.5022H8.60273L0.0800781 43.0249Z" fill="white"/>
</svg>
