<svg xmlns="http://www.w3.org/2000/svg" width="44" height="46" viewBox="0 0 44 46" fill="none">
<path d="M22.9347 0.271676C23.3675 0.374286 23.5663 0.467272 24.1852 0.858472C26.4298 2.27576 28.793 4.07143 30.8965 5.95688L31.3358 6.35128V5.62019C31.3358 4.8923 31.3358 4.88589 31.4192 4.71594C31.5218 4.51072 31.6949 4.37605 31.9226 4.32795C32.0701 4.29587 32.2946 4.31835 33.9523 4.53317C34.9784 4.66785 35.8474 4.77687 35.8827 4.77687C36.136 4.77687 36.5432 5.06546 36.6875 5.34763C36.9344 5.83182 37.4892 9.52576 37.7617 12.495C37.813 13.0594 37.8579 13.3993 37.89 13.4602C37.9156 13.5083 38.0503 13.6943 38.185 13.8706C38.6275 14.435 39.7145 15.9004 40.2019 16.593C41.6577 18.6516 43.2064 21.1431 43.4726 21.8485C43.6489 22.3167 43.6105 22.663 43.2962 23.4486L43.0974 23.936L41.2665 24.2662C39.8748 24.5164 39.3938 24.6158 39.272 24.6735C39.0475 24.7825 38.8231 25.0166 38.6916 25.2827L38.5826 25.5072L38.5505 26.1966C38.3966 29.4929 38.0375 34.9761 37.7809 37.9005C37.4539 41.6201 37.1428 43.9769 36.9088 44.4835C36.7805 44.7625 36.4887 45.0446 36.2194 45.1505C36.0398 45.221 36.0013 45.221 35.1997 45.2146C34.7411 45.2082 34.0934 45.1953 33.7567 45.1825C33.4232 45.1697 32.8172 45.1569 32.4132 45.1504C31.6051 45.144 31.4833 45.1216 31.4448 44.9741C31.4352 44.926 31.4641 44.2654 31.5089 43.5023C31.7655 39.2408 31.9098 35.6591 32.0092 31.1827C32.0252 30.3522 32.0476 29.4384 32.0573 29.1466C32.0894 28.1493 32.099 22.3647 32.0733 21.2745C32.022 19.1935 31.9194 17.4074 31.836 17.0996C31.7783 16.888 31.7494 16.8399 31.618 16.7148C31.3647 16.4743 31.0344 16.4038 30.7715 16.5384C30.3001 16.7789 29.2964 18.2507 28.482 19.8957C26.5645 23.7756 25.2402 29.2332 24.7624 35.223C24.7271 35.6815 24.679 36.1529 24.6598 36.2683C24.6309 36.4479 24.6341 36.5056 24.679 36.6435C24.7656 36.9 24.8906 37.0475 25.1247 37.1629C25.3107 37.2527 25.4454 37.2784 26.6799 37.4644C27.6002 37.6022 28.0555 37.6824 28.11 37.7209C28.1549 37.7497 28.2158 37.8171 28.2447 37.8748C28.2928 37.9678 28.2928 38.0415 28.2607 38.6347C28.1741 40.1001 28.0202 42.0144 27.8278 43.9191C27.7156 45.0478 27.7092 45.0735 27.4943 45.1825C27.4046 45.2274 27.0134 45.2338 23.6176 45.2306C20.0616 45.2277 19.8339 45.2242 19.757 45.1697C19.5678 45.0414 19.5582 44.9869 19.3273 42.8706C19.0483 40.2829 18.9265 38.7855 18.9201 37.7562C18.9136 37.1501 18.9168 37.1373 19.0002 36.9674C19.0611 36.8391 19.1317 36.7589 19.2792 36.6531C19.5357 36.4639 19.9622 36.015 20.1546 35.7264C20.4848 35.2326 20.7061 34.6843 20.8055 34.1039C20.8504 33.8602 20.8568 33.655 20.8408 32.8662C20.8215 31.9619 20.7734 30.3042 20.7382 29.3069C20.7285 29.0504 20.7157 27.4696 20.7093 25.7958C20.6965 22.8297 20.7125 21.4573 20.7863 19.9759C20.8568 18.5105 20.8632 18.1995 20.8183 18.0712C20.767 17.9141 20.6163 17.7441 20.4528 17.6608C20.145 17.5004 19.6864 17.6223 19.5036 17.9141C19.3978 18.0776 19.385 18.2347 19.3561 19.6873C19.3465 20.226 19.3305 20.7006 19.3209 20.7455C19.3113 20.7903 19.2984 22.5571 19.292 24.6735C19.2824 27.4375 19.2696 28.5502 19.2439 28.6303C19.1926 28.7843 18.9682 29.0151 18.8014 29.0921C18.6283 29.169 18.3172 29.1755 18.1537 29.1049C17.9837 29.0344 17.7881 28.8452 17.7016 28.672C17.6342 28.5309 17.6278 28.4668 17.6086 27.6235C17.5797 26.4755 17.5637 23.471 17.5797 22.1243C17.5925 20.9571 17.6182 20.0945 17.6791 18.8824C17.724 17.9654 17.7112 17.8596 17.5444 17.6575C17.243 17.292 16.5985 17.3369 16.3484 17.7409C16.2586 17.8884 16.2554 17.898 16.2137 18.6997C16.1239 20.3286 16.1111 21.3419 16.1272 24.6735C16.1496 28.8131 16.1528 28.4187 16.0726 28.5854C15.9925 28.749 15.7937 28.9382 15.6269 29.0119C15.3544 29.1274 14.9504 29.0472 14.7323 28.8259C14.5143 28.6079 14.4918 28.5245 14.4662 27.8159C14.4277 26.809 14.4084 22.4738 14.4373 21.3226C14.4501 20.7487 14.4822 19.8701 14.5046 19.3666C14.5303 18.8632 14.5495 18.3085 14.5495 18.1289C14.5495 17.8275 14.5431 17.7954 14.4533 17.6511C14.184 17.215 13.5042 17.2022 13.2092 17.6255C13.1226 17.7441 13.113 17.7922 13.0906 18.1353C13.0489 18.7125 12.9912 20.0721 12.9623 21.1142C12.927 22.2974 12.9495 28.5341 12.9912 29.9322C13.0938 33.2895 13.1098 33.7127 13.1707 34.0013C13.3631 34.9248 13.9275 35.7617 14.7131 36.2844C15.0433 36.5024 15.2261 36.7076 15.2838 36.9225C15.3159 37.0315 15.3351 37.3521 15.348 37.9005C15.3768 39.1767 15.4858 41.3539 15.6269 43.5151C15.7007 44.647 15.7007 44.647 15.4987 44.7849L15.3896 44.8587L13.5266 44.8616C12.5006 44.8645 11.5771 44.8712 11.4713 44.8744C11.3654 44.8773 10.8684 44.8937 10.365 44.9033C9.86156 44.9161 9.33569 44.9321 9.1914 44.9417C8.60139 44.9834 8.14927 44.7269 7.88313 44.1946C7.46948 43.3673 6.71915 35.2227 6.30871 27.03C6.21572 25.1798 6.22214 25.2407 6.10991 25.0098C6.0586 24.8944 5.95599 24.7373 5.88224 24.6571C5.62572 24.3685 5.62572 24.3653 3.52543 23.9837C2.11776 23.7304 1.59189 23.6214 1.48607 23.5669C1.27444 23.4611 1.0083 23.1917 0.89286 22.9737C0.796663 22.7877 0.793457 22.7685 0.793457 22.3805V21.9797L0.998675 21.5788C1.80031 20.0012 3.40679 17.5161 5.07419 15.2748C6.45621 13.4182 7.78052 11.8245 9.44792 10.0032C10.1309 9.25929 12.0613 7.32896 12.7859 6.6652C15.1267 4.52644 17.4226 2.73398 19.7281 1.24935C20.0904 1.01527 20.4784 0.761951 20.5939 0.684997C20.953 0.444504 21.3346 0.297005 21.8059 0.223253C22.0528 0.184795 22.6781 0.210434 22.9346 0.271367L22.9347 0.271676Z" fill="white"/>
</svg>