<svg width="59" height="54" viewBox="0 0 59 54" fill="none" xmlns="http://www.w3.org/2000/svg">
<path d="M29.8501 53.0968L26.8915 50.4268C21.792 45.7603 17.5826 41.7313 14.2631 38.3397C10.9437 34.9481 8.29775 31.9173 6.32533 29.2473C4.35291 26.5773 2.9698 24.1599 2.17602 21.995C1.38224 19.8302 0.985352 17.6413 0.985352 15.4283C0.985352 11.0986 2.44062 7.47847 5.35114 4.56794C8.26167 1.65741 11.8577 0.202148 16.1393 0.202148C18.8815 0.202148 21.4192 0.851605 23.7524 2.15052C26.0857 3.44943 28.1182 5.32564 29.8501 7.77914C31.8706 5.18132 34.0114 3.26903 36.2725 2.04228C38.5336 0.815524 40.963 0.202148 43.5609 0.202148C47.8425 0.202148 51.4385 1.65741 54.349 4.56794C57.2596 7.47847 58.7148 11.0986 58.7148 15.4283C58.7148 17.6413 58.318 19.8302 57.5242 21.995C56.7304 24.1599 55.3473 26.5773 53.3749 29.2473C51.4024 31.9173 48.7565 34.9481 45.4371 38.3397C42.1176 41.7313 37.9082 45.7603 32.8087 50.4268L29.8501 53.0968ZM29.8501 47.396C34.709 42.922 38.714 39.0854 41.865 35.8862C45.0161 32.687 47.5177 29.8847 49.3699 27.4793C51.222 25.0739 52.5209 22.9331 53.2666 21.0569C54.0123 19.1807 54.3851 17.3045 54.3851 15.4283C54.3851 12.2532 53.3749 9.64333 51.3543 7.59874C49.3338 5.55415 46.736 4.53186 43.5609 4.53186C41.1073 4.53186 38.8222 5.28956 36.7055 6.80496C34.5887 8.32036 32.8809 10.4491 31.582 13.1913H28.0461C26.7952 10.4972 25.1115 8.38049 22.9947 6.84104C20.878 5.30159 18.5928 4.53186 16.1393 4.53186C12.9642 4.53186 10.3664 5.55415 8.34586 7.59874C6.32533 9.64333 5.31506 12.2532 5.31506 15.4283C5.31506 17.3045 5.6879 19.1927 6.43357 21.093C7.17924 22.9933 8.47816 25.1581 10.3303 27.5876C12.1825 30.017 14.6961 32.8193 17.8712 35.9944C21.0464 39.1696 25.0393 42.9701 29.8501 47.396Z" fill="white"/>
</svg>
