<svg xmlns="http://www.w3.org/2000/svg" width="50" height="51" viewBox="0 0 50 51" fill="none"><link xmlns="" type="text/css" rel="stylesheet" id="dark-mode-custom-link"/><link xmlns="" type="text/css" rel="stylesheet" id="dark-mode-general-link"/><style xmlns="" lang="en" type="text/css" id="dark-mode-custom-style"/><style xmlns="" lang="en" type="text/css" id="dark-mode-native-style"/><style xmlns="" lang="en" type="text/css" id="dark-mode-native-sheet"/>
<path d="M15.1491 37.3473L24.9837 32.8939L34.8182 37.3473L35.1275 37.038L24.9837 12.4826L14.8399 37.038L15.1491 37.3473ZM24.9837 50.46C21.6024 50.46 18.4067 49.8105 15.3965 48.5116C12.3864 47.2127 9.75765 45.4396 7.51034 43.1923C5.26303 40.945 3.48993 38.3163 2.19103 35.3061C0.892127 32.296 0.242676 29.1003 0.242676 25.719C0.242676 22.2965 0.892127 19.0802 2.19103 16.07C3.48993 13.0599 5.26303 10.4415 7.51034 8.21477C9.75765 5.98808 12.3864 4.22528 15.3965 2.92638C18.4067 1.62748 21.6024 0.978027 24.9837 0.978027C28.4062 0.978027 31.6225 1.62748 34.6326 2.92638C37.6428 4.22528 40.2612 5.98808 42.4879 8.21477C44.7146 10.4415 46.4774 13.0599 47.7763 16.07C49.0752 19.0802 49.7246 22.2965 49.7246 25.719C49.7246 29.1003 49.0752 32.296 47.7763 35.3061C46.4774 38.3163 44.7146 40.945 42.4879 43.1923C40.2612 45.4396 37.6428 47.2127 34.6326 48.5116C31.6225 49.8105 28.4062 50.46 24.9837 50.46Z" fill="white" style="&#10;    fill: #3d3d3d;&#10;"/>
</svg>